<svg width="501" height="501" viewBox="0 0 501 501" fill="none" xmlns="http://www.w3.org/2000/svg">
<circle cx="250.869" cy="250.51" r="250" fill="#905BFF"/>
<path d="M209.833 170.51V330.51H180.614L111.005 229.807H109.833V330.51H76.0048V170.51H105.692L174.755 271.135H176.161V170.51H209.833ZM392.276 222.229C391.182 218.427 389.646 215.067 387.667 212.151C385.687 209.182 383.266 206.682 380.401 204.651C377.588 202.567 374.359 200.979 370.713 199.885C367.12 198.791 363.135 198.244 358.76 198.244C350.583 198.244 343.396 200.276 337.198 204.338C331.052 208.401 326.26 214.312 322.823 222.072C319.385 229.781 317.667 239.208 317.667 250.354C317.667 261.499 319.359 270.979 322.745 278.791C326.13 286.604 330.922 292.567 337.12 296.682C343.318 300.744 350.635 302.776 359.073 302.776C366.729 302.776 373.266 301.421 378.682 298.713C384.151 295.953 388.318 292.072 391.182 287.072C394.099 282.072 395.557 276.161 395.557 269.338L402.432 270.354H361.182V244.885H428.135V265.041C428.135 279.104 425.167 291.187 419.229 301.291C413.292 311.343 405.114 319.104 394.698 324.572C384.281 329.989 372.354 332.697 358.917 332.697C343.917 332.697 330.739 329.39 319.385 322.776C308.031 316.109 299.177 306.656 292.823 294.416C286.521 282.124 283.37 267.541 283.37 250.666C283.37 237.697 285.245 226.135 288.995 215.979C292.797 205.77 298.109 197.124 304.932 190.041C311.755 182.958 319.698 177.567 328.76 173.869C337.823 170.171 347.641 168.322 358.213 168.322C367.276 168.322 375.713 169.651 383.526 172.307C391.338 174.911 398.266 178.609 404.307 183.401C410.401 188.192 415.375 193.895 419.229 200.51C423.083 207.072 425.557 214.312 426.651 222.229H392.276Z" fill="white"/>
</svg>
